<svg xmlns="http://www.w3.org/2000/svg" xmlns:xlink="http://www.w3.org/1999/xlink" width="1500" zoomAndPan="magnify" viewBox="0 0 1125 562.499983" height="750" preserveAspectRatio="xMidYMid meet" version="1.0"><defs><g/><clipPath id="586cb27736"><path d="M 270.882812 475.171875 L 896 475.171875 L 896 536.429688 L 270.882812 536.429688 Z M 270.882812 475.171875 " clip-rule="nonzero"/></clipPath><clipPath id="5e7d30552e"><path d="M 583.4375 475.171875 C 410.816406 475.171875 270.882812 488.882812 270.882812 505.800781 C 270.882812 522.714844 410.816406 536.429688 583.4375 536.429688 C 756.058594 536.429688 895.992188 522.714844 895.992188 505.800781 C 895.992188 488.882812 756.058594 475.171875 583.4375 475.171875 Z M 583.4375 475.171875 " clip-rule="nonzero"/></clipPath><clipPath id="63ba25b97d"><path d="M 336.582031 13.722656 L 819.273438 13.722656 L 819.273438 496.414062 L 336.582031 496.414062 Z M 336.582031 13.722656 " clip-rule="nonzero"/></clipPath><clipPath id="e44e5caa19"><path d="M 577.925781 13.722656 C 444.636719 13.722656 336.582031 121.777344 336.582031 255.066406 C 336.582031 388.359375 444.636719 496.414062 577.925781 496.414062 C 711.21875 496.414062 819.273438 388.359375 819.273438 255.066406 C 819.273438 121.777344 711.21875 13.722656 577.925781 13.722656 Z M 577.925781 13.722656 " clip-rule="nonzero"/></clipPath><clipPath id="09d33847be"><path d="M 333.15625 182.746094 L 822.699219 182.746094 L 822.699219 203.183594 L 333.15625 203.183594 Z M 333.15625 182.746094 " clip-rule="nonzero"/></clipPath><clipPath id="c8b1040cca"><path d="M 333.15625 222.207031 L 822.699219 222.207031 L 822.699219 242.648438 L 333.15625 242.648438 Z M 333.15625 222.207031 " clip-rule="nonzero"/></clipPath><clipPath id="f9bfbe655a"><path d="M 325.796875 260.679688 L 830.058594 260.679688 L 830.058594 528.523438 L 325.796875 528.523438 Z M 325.796875 260.679688 " clip-rule="nonzero"/></clipPath><clipPath id="681b779f0f"><path d="M 103.996094 260.679688 L 546 260.679688 L 546 527.960938 L 103.996094 527.960938 Z M 103.996094 260.679688 " clip-rule="nonzero"/></clipPath><clipPath id="408d66395b"><path d="M 325.039062 260.679688 L 546.082031 527.960938 L 103.996094 527.960938 Z M 325.039062 260.679688 " clip-rule="nonzero"/></clipPath><clipPath id="2de949c1af"><path d="M 609.773438 260.679688 L 1052 260.679688 L 1052 527.960938 L 609.773438 527.960938 Z M 609.773438 260.679688 " clip-rule="nonzero"/></clipPath><clipPath id="d966285a42"><path d="M 830.816406 260.679688 L 1051.859375 527.960938 L 609.773438 527.960938 Z M 830.816406 260.679688 " clip-rule="nonzero"/></clipPath><clipPath id="3e4613cc03"><path d="M 293.785156 182.746094 L 862 182.746094 L 862 526.320312 L 293.785156 526.320312 Z M 293.785156 182.746094 " clip-rule="nonzero"/></clipPath><clipPath id="cf8b9dac37"><path d="M 577.925781 182.746094 L 862.070312 526.320312 L 293.785156 526.320312 Z M 577.925781 182.746094 " clip-rule="nonzero"/></clipPath><clipPath id="3ad9c570ad"><path d="M 336.582031 280.644531 L 819.273438 280.644531 L 819.273438 537.03125 L 336.582031 537.03125 Z M 336.582031 280.644531 " clip-rule="nonzero"/></clipPath><clipPath id="57a9fe81cb"><path d="M 124.269531 280.644531 L 548 280.644531 L 548 536.492188 L 124.269531 536.492188 Z M 124.269531 280.644531 " clip-rule="nonzero"/></clipPath><clipPath id="5262e0ec4b"><path d="M 335.859375 280.644531 L 547.445312 536.492188 L 124.269531 536.492188 Z M 335.859375 280.644531 " clip-rule="nonzero"/></clipPath><clipPath id="0d8313d72f"><path d="M 608.410156 280.644531 L 1032 280.644531 L 1032 536.492188 L 608.410156 536.492188 Z M 608.410156 280.644531 " clip-rule="nonzero"/></clipPath><clipPath id="95244ce364"><path d="M 819.996094 280.644531 L 1031.585938 536.492188 L 608.410156 536.492188 Z M 819.996094 280.644531 " clip-rule="nonzero"/></clipPath><clipPath id="c044299485"><path d="M 176.570312 320.746094 L 548 320.746094 L 548 545.1875 L 176.570312 545.1875 Z M 176.570312 320.746094 " clip-rule="nonzero"/></clipPath><clipPath id="f60154923b"><path d="M 362.183594 320.746094 L 547.800781 545.1875 L 176.570312 545.1875 Z M 362.183594 320.746094 " clip-rule="nonzero"/></clipPath><clipPath id="5810bc1dab"><path d="M 608.054688 320.746094 L 979 320.746094 L 979 545.1875 L 608.054688 545.1875 Z M 608.054688 320.746094 " clip-rule="nonzero"/></clipPath><clipPath id="864694a019"><path d="M 793.671875 320.746094 L 979.285156 545.1875 L 608.054688 545.1875 Z M 793.671875 320.746094 " clip-rule="nonzero"/></clipPath><clipPath id="ed94ed0ea0"><path d="M 305.941406 206.042969 L 850 206.042969 L 850 534.921875 L 305.941406 534.921875 Z M 305.941406 206.042969 " clip-rule="nonzero"/></clipPath><clipPath id="c80fb19b9c"><path d="M 577.925781 206.042969 L 849.914062 534.921875 L 305.941406 534.921875 Z M 577.925781 206.042969 " clip-rule="nonzero"/></clipPath><clipPath id="4ef26ef3b7"><path d="M 351.417969 274.390625 L 804 274.390625 L 804 548.277344 L 351.417969 548.277344 Z M 351.417969 274.390625 " clip-rule="nonzero"/></clipPath><clipPath id="8318c724c6"><path d="M 577.925781 274.390625 L 804.433594 548.277344 L 351.417969 548.277344 Z M 577.925781 274.390625 " clip-rule="nonzero"/></clipPath><clipPath id="f2915ab94e"><path d="M 536.800781 370.484375 L 574.625 370.484375 L 574.625 408.308594 L 536.800781 408.308594 Z M 536.800781 370.484375 " clip-rule="nonzero"/></clipPath><clipPath id="c71f67fe94"><path d="M 536.800781 416.753906 L 574.625 416.753906 L 574.625 454.578125 L 536.800781 454.578125 Z M 536.800781 416.753906 " clip-rule="nonzero"/></clipPath><clipPath id="ed3d7b7150"><path d="M 581.230469 370.484375 L 619.054688 370.484375 L 619.054688 408.308594 L 581.230469 408.308594 Z M 581.230469 370.484375 " clip-rule="nonzero"/></clipPath><clipPath id="c904cbea02"><path d="M 581.230469 416.753906 L 619.054688 416.753906 L 619.054688 454.578125 L 581.230469 454.578125 Z M 581.230469 416.753906 " clip-rule="nonzero"/></clipPath><clipPath id="18728e74ed"><path d="M 275 341 L 469 341 L 469 535 L 275 535 Z M 275 341 " clip-rule="nonzero"/></clipPath><clipPath id="fd1ed4365e"><path d="M 454.492188 326.675781 L 483.347656 355.535156 L 303.894531 534.988281 L 275.039062 506.128906 Z M 454.492188 326.675781 " clip-rule="nonzero"/></clipPath><clipPath id="7678c7a378"><path d="M 468.921875 341.105469 L 303.96875 534.914062 L 275.109375 506.058594 Z M 468.921875 341.105469 " clip-rule="nonzero"/></clipPath><clipPath id="b0fde99fbd"><path d="M 685 341 L 880 341 L 880 535 L 685 535 Z M 685 341 " clip-rule="nonzero"/></clipPath><clipPath id="d43a3d9ce0"><path d="M 671.539062 355.53125 L 700.394531 326.675781 L 879.847656 506.128906 L 850.992188 534.984375 Z M 671.539062 355.53125 " clip-rule="nonzero"/></clipPath><clipPath id="4804057b06"><path d="M 685.96875 341.105469 L 879.777344 506.058594 L 850.921875 534.914062 Z M 685.96875 341.105469 " clip-rule="nonzero"/></clipPath></defs><g clip-path="url(#586cb27736)"><g clip-path="url(#5e7d30552e)"><path fill="#ffffff" d="M 270.882812 475.171875 L 895.921875 475.171875 L 895.921875 536.429688 L 270.882812 536.429688 Z M 270.882812 475.171875 " fill-opacity="1" fill-rule="nonzero"/></g></g><g fill="#000000" fill-opacity="1"><g transform="translate(445.755096, 522.452001)"><g><path d="M 2.40625 -33.03125 L 14.21875 -33.03125 C 17.394531 -33.03125 19.984375 -32.179688 21.984375 -30.484375 C 23.984375 -28.796875 24.984375 -26.378906 24.984375 -23.234375 C 24.984375 -20.796875 24.375 -18.753906 23.15625 -17.109375 C 21.945312 -15.472656 20.300781 -14.320312 18.21875 -13.65625 L 29.59375 0 L 20.03125 0 L 9.9375 -13.0625 L 9.9375 0 L 2.40625 0 Z M 9.9375 -18.375 L 10.8125 -18.375 C 11.507812 -18.375 12.097656 -18.390625 12.578125 -18.421875 C 13.054688 -18.453125 13.601562 -18.546875 14.21875 -18.703125 C 14.832031 -18.859375 15.328125 -19.082031 15.703125 -19.375 C 16.078125 -19.675781 16.394531 -20.101562 16.65625 -20.65625 C 16.925781 -21.21875 17.0625 -21.898438 17.0625 -22.703125 C 17.0625 -23.503906 16.925781 -24.1875 16.65625 -24.75 C 16.394531 -25.3125 16.078125 -25.738281 15.703125 -26.03125 C 15.328125 -26.320312 14.832031 -26.546875 14.21875 -26.703125 C 13.601562 -26.867188 13.054688 -26.960938 12.578125 -26.984375 C 12.097656 -27.015625 11.507812 -27.03125 10.8125 -27.03125 L 9.9375 -27.03125 Z M 9.9375 -18.375 "/></g></g></g><g fill="#000000" fill-opacity="1"><g transform="translate(477.950586, 522.452001)"><g><path d="M 21.3125 -33.03125 L 21.3125 -26.4375 L 9.9375 -26.4375 L 9.9375 -19.859375 L 20.828125 -19.859375 L 20.828125 -13.25 L 9.9375 -13.25 L 9.9375 -6.609375 L 21.3125 -6.609375 L 21.3125 0 L 2.40625 0 L 2.40625 -33.03125 Z M 21.3125 -33.03125 "/></g></g></g><g fill="#000000" fill-opacity="1"><g transform="translate(504.700292, 522.452001)"><g><path d="M 9.9375 -20.5 L 9.9375 0 L 2.40625 0 L 2.40625 -33.03125 L 9.9375 -33.03125 L 23.0625 -12.53125 L 23.140625 -12.53125 L 23.140625 -33.03125 L 30.671875 -33.03125 L 30.671875 0 L 23.140625 0 L 10.015625 -20.5 Z M 9.9375 -20.5 "/></g></g></g><g fill="#000000" fill-opacity="1"><g transform="translate(541.300457, 522.452001)"><g><path d="M 0.328125 -26.4375 L 0.328125 -33.03125 L 23.546875 -33.03125 L 23.546875 -26.4375 L 15.703125 -26.4375 L 15.703125 0 L 8.171875 0 L 8.171875 -26.4375 Z M 0.328125 -26.4375 "/></g></g></g><g fill="#000000" fill-opacity="1"><g transform="translate(568.690833, 522.452001)"><g/></g></g><g fill="#000000" fill-opacity="1"><g transform="translate(583.147482, 522.452001)"><g><path d="M 29.71875 0 L 28.15625 -19.578125 L 27.953125 -19.578125 L 21.1875 -0.203125 L 16.703125 -0.203125 L 9.9375 -19.578125 L 9.734375 -19.578125 L 8.171875 0 L 0.640625 0 L 3.609375 -33.03125 L 11.609375 -33.03125 L 18.9375 -13.96875 L 26.265625 -33.03125 L 34.28125 -33.03125 L 37.25 0 Z M 29.71875 0 "/></g></g></g><g fill="#000000" fill-opacity="1"><g transform="translate(624.552744, 522.452001)"><g><path d="M 19.1875 -33.03125 L 32.515625 0 L 24.421875 0 L 21.984375 -6.609375 L 9.40625 -6.609375 L 6.96875 0 L -1.125 0 L 12.21875 -33.03125 Z M 19.421875 -13.21875 L 15.734375 -22.828125 L 15.65625 -22.828125 L 11.96875 -13.21875 Z M 19.421875 -13.21875 "/></g></g></g><g fill="#000000" fill-opacity="1"><g transform="translate(659.471119, 522.452001)"><g><path d="M 0.328125 -26.4375 L 0.328125 -33.03125 L 23.546875 -33.03125 L 23.546875 -26.4375 L 15.703125 -26.4375 L 15.703125 0 L 8.171875 0 L 8.171875 -26.4375 Z M 0.328125 -26.4375 "/></g></g></g><g fill="#000000" fill-opacity="1"><g transform="translate(686.861503, 522.452001)"><g><path d="M 21.3125 -33.03125 L 21.3125 -26.4375 L 9.9375 -26.4375 L 9.9375 -19.859375 L 20.828125 -19.859375 L 20.828125 -13.25 L 9.9375 -13.25 L 9.9375 -6.609375 L 21.3125 -6.609375 L 21.3125 0 L 2.40625 0 L 2.40625 -33.03125 Z M 21.3125 -33.03125 "/></g></g></g><g clip-path="url(#63ba25b97d)"><g clip-path="url(#e44e5caa19)"><path fill="#ffbd59" d="M 336.582031 13.722656 L 819.273438 13.722656 L 819.273438 496.414062 L 336.582031 496.414062 Z M 336.582031 13.722656 " fill-opacity="1" fill-rule="nonzero"/></g></g><g clip-path="url(#09d33847be)"><path fill="#ffffff" d="M 333.15625 182.746094 L 822.691406 182.746094 L 822.691406 203.183594 L 333.15625 203.183594 Z M 333.15625 182.746094 " fill-opacity="1" fill-rule="nonzero"/></g><g clip-path="url(#c8b1040cca)"><path fill="#ffffff" d="M 333.15625 222.207031 L 822.691406 222.207031 L 822.691406 242.648438 L 333.15625 242.648438 Z M 333.15625 222.207031 " fill-opacity="1" fill-rule="nonzero"/></g><g clip-path="url(#f9bfbe655a)"><path fill="#ffffff" d="M 325.796875 260.679688 L 830.101562 260.679688 L 830.101562 528.523438 L 325.796875 528.523438 Z M 325.796875 260.679688 " fill-opacity="1" fill-rule="nonzero"/></g><g clip-path="url(#681b779f0f)"><g clip-path="url(#408d66395b)"><path fill="#ffffff" d="M 103.996094 260.679688 L 545.636719 260.679688 L 545.636719 527.960938 L 103.996094 527.960938 Z M 103.996094 260.679688 " fill-opacity="1" fill-rule="nonzero"/></g></g><g clip-path="url(#2de949c1af)"><g clip-path="url(#d966285a42)"><path fill="#ffffff" d="M 609.773438 260.679688 L 1051.410156 260.679688 L 1051.410156 527.960938 L 609.773438 527.960938 Z M 609.773438 260.679688 " fill-opacity="1" fill-rule="nonzero"/></g></g><g clip-path="url(#3e4613cc03)"><g clip-path="url(#cf8b9dac37)"><path fill="#ffffff" d="M 293.785156 182.746094 L 861.492188 182.746094 L 861.492188 526.320312 L 293.785156 526.320312 Z M 293.785156 182.746094 " fill-opacity="1" fill-rule="nonzero"/></g></g><g clip-path="url(#3ad9c570ad)"><path fill="#737373" d="M 336.582031 280.644531 L 819.3125 280.644531 L 819.3125 537.03125 L 336.582031 537.03125 Z M 336.582031 280.644531 " fill-opacity="1" fill-rule="nonzero"/></g><g clip-path="url(#57a9fe81cb)"><g clip-path="url(#5262e0ec4b)"><path fill="#737373" d="M 124.269531 280.644531 L 547.015625 280.644531 L 547.015625 536.492188 L 124.269531 536.492188 Z M 124.269531 280.644531 " fill-opacity="1" fill-rule="nonzero"/></g></g><g clip-path="url(#0d8313d72f)"><g clip-path="url(#95244ce364)"><path fill="#737373" d="M 608.410156 280.644531 L 1031.15625 280.644531 L 1031.15625 536.492188 L 608.410156 536.492188 Z M 608.410156 280.644531 " fill-opacity="1" fill-rule="nonzero"/></g></g><g clip-path="url(#c044299485)"><g clip-path="url(#f60154923b)"><path fill="#ffffff" d="M 176.570312 320.746094 L 547.425781 320.746094 L 547.425781 545.1875 L 176.570312 545.1875 Z M 176.570312 320.746094 " fill-opacity="1" fill-rule="nonzero"/></g></g><g clip-path="url(#5810bc1dab)"><g clip-path="url(#864694a019)"><path fill="#ffffff" d="M 608.054688 320.746094 L 978.910156 320.746094 L 978.910156 545.1875 L 608.054688 545.1875 Z M 608.054688 320.746094 " fill-opacity="1" fill-rule="nonzero"/></g></g><g clip-path="url(#ed94ed0ea0)"><g clip-path="url(#c80fb19b9c)"><path fill="#737373" d="M 305.941406 206.042969 L 849.363281 206.042969 L 849.363281 534.921875 L 305.941406 534.921875 Z M 305.941406 206.042969 " fill-opacity="1" fill-rule="nonzero"/></g></g><g clip-path="url(#4ef26ef3b7)"><g clip-path="url(#8318c724c6)"><path fill="#ffffff" d="M 351.417969 274.390625 L 803.976562 274.390625 L 803.976562 548.277344 L 351.417969 548.277344 Z M 351.417969 274.390625 " fill-opacity="1" fill-rule="nonzero"/></g></g><g clip-path="url(#f2915ab94e)"><path fill="#737373" d="M 536.800781 370.484375 L 574.625 370.484375 L 574.625 408.308594 L 536.800781 408.308594 Z M 536.800781 370.484375 " fill-opacity="1" fill-rule="nonzero"/></g><g clip-path="url(#c71f67fe94)"><path fill="#737373" d="M 536.800781 416.753906 L 574.625 416.753906 L 574.625 454.578125 L 536.800781 454.578125 Z M 536.800781 416.753906 " fill-opacity="1" fill-rule="nonzero"/></g><g clip-path="url(#ed3d7b7150)"><path fill="#737373" d="M 581.230469 370.484375 L 619.054688 370.484375 L 619.054688 408.308594 L 581.230469 408.308594 Z M 581.230469 370.484375 " fill-opacity="1" fill-rule="nonzero"/></g><g clip-path="url(#c904cbea02)"><path fill="#737373" d="M 581.230469 416.753906 L 619.054688 416.753906 L 619.054688 454.578125 L 581.230469 454.578125 Z M 581.230469 416.753906 " fill-opacity="1" fill-rule="nonzero"/></g><g clip-path="url(#18728e74ed)"><g clip-path="url(#fd1ed4365e)"><g clip-path="url(#7678c7a378)"><path fill="#ffffff" d="M 454.492188 326.675781 L 483.347656 355.535156 L 304.007812 534.875 L 275.152344 506.019531 Z M 454.492188 326.675781 " fill-opacity="1" fill-rule="nonzero"/></g></g></g><g clip-path="url(#b0fde99fbd)"><g clip-path="url(#d43a3d9ce0)"><g clip-path="url(#4804057b06)"><path fill="#ffffff" d="M 671.539062 355.53125 L 700.394531 326.675781 L 879.734375 506.015625 L 850.878906 534.871094 Z M 671.539062 355.53125 " fill-opacity="1" fill-rule="nonzero"/></g></g></g></svg>