<svg xmlns="http://www.w3.org/2000/svg" xmlns:xlink="http://www.w3.org/1999/xlink" width="500" zoomAndPan="magnify" viewBox="0 0 375 374.999991" height="500" preserveAspectRatio="xMidYMid meet" version="1.0"><defs><g/><clipPath id="3c0e3809e7"><path d="M 7.347656 120.253906 L 367.617188 120.253906 L 367.617188 209 L 7.347656 209 Z M 7.347656 120.253906 " clip-rule="nonzero"/></clipPath></defs><g fill="#ed7953" fill-opacity="1"><g transform="translate(98.693073, 249.384659)"><g><path d="M 7.265625 -17.828125 C 8.722656 -17.828125 9.929688 -17.644531 10.890625 -17.28125 C 11.847656 -16.925781 12.5625 -16.378906 13.03125 -15.640625 C 13.5 -14.898438 13.734375 -13.957031 13.734375 -12.8125 C 13.734375 -11.863281 13.5625 -11.070312 13.21875 -10.4375 C 12.882812 -9.8125 12.4375 -9.300781 11.875 -8.90625 C 11.320312 -8.519531 10.734375 -8.222656 10.109375 -8.015625 L 15 0 L 12.59375 0 L 8.21875 -7.4375 L 4.515625 -7.4375 L 4.515625 0 L 2.4375 0 L 2.4375 -17.828125 Z M 7.140625 -16.046875 L 4.515625 -16.046875 L 4.515625 -9.203125 L 7.34375 -9.203125 C 8.800781 -9.203125 9.875 -9.5 10.5625 -10.09375 C 11.25 -10.6875 11.59375 -11.5625 11.59375 -12.71875 C 11.59375 -13.925781 11.226562 -14.78125 10.5 -15.28125 C 9.769531 -15.789062 8.648438 -16.046875 7.140625 -16.046875 Z M 7.140625 -16.046875 "/></g></g></g><g fill="#ed7953" fill-opacity="1"><g transform="translate(119.528377, 249.384659)"><g><path d="M 12.375 0 L 2.4375 0 L 2.4375 -17.828125 L 12.375 -17.828125 L 12.375 -16 L 4.515625 -16 L 4.515625 -10.234375 L 11.921875 -10.234375 L 11.921875 -8.4375 L 4.515625 -8.4375 L 4.515625 -1.828125 L 12.375 -1.828125 Z M 12.375 0 "/></g></g></g><g fill="#ed7953" fill-opacity="1"><g transform="translate(138.827237, 249.384659)"><g><path d="M 16.390625 0 L 14 0 L 4.265625 -14.984375 L 4.171875 -14.984375 C 4.191406 -14.585938 4.21875 -14.132812 4.25 -13.625 C 4.289062 -13.113281 4.320312 -12.570312 4.34375 -12 C 4.363281 -11.425781 4.375 -10.84375 4.375 -10.25 L 4.375 0 L 2.4375 0 L 2.4375 -17.828125 L 4.8125 -17.828125 L 14.5 -2.90625 L 14.59375 -2.90625 C 14.570312 -3.1875 14.550781 -3.585938 14.53125 -4.109375 C 14.507812 -4.640625 14.488281 -5.207031 14.46875 -5.8125 C 14.445312 -6.414062 14.4375 -6.976562 14.4375 -7.5 L 14.4375 -17.828125 L 16.390625 -17.828125 Z M 16.390625 0 "/></g></g></g><g fill="#ed7953" fill-opacity="1"><g transform="translate(163.052472, 249.384659)"><g><path d="M 7.921875 0 L 5.828125 0 L 5.828125 -16 L 0.21875 -16 L 0.21875 -17.828125 L 13.5 -17.828125 L 13.5 -16 L 7.921875 -16 Z M 7.921875 0 "/></g></g></g><g fill="#ed7953" fill-opacity="1"><g transform="translate(182.229394, 249.384659)"><g/></g></g><g fill="#ed7953" fill-opacity="1"><g transform="translate(194.138689, 249.384659)"><g><path d="M 10.28125 0 L 4.296875 -15.78125 L 4.203125 -15.78125 C 4.234375 -15.445312 4.257812 -15.039062 4.28125 -14.5625 C 4.300781 -14.082031 4.320312 -13.5625 4.34375 -13 C 4.363281 -12.4375 4.375 -11.859375 4.375 -11.265625 L 4.375 0 L 2.4375 0 L 2.4375 -17.828125 L 5.515625 -17.828125 L 11.15625 -3 L 11.25 -3 L 16.984375 -17.828125 L 20.03125 -17.828125 L 20.03125 0 L 17.984375 0 L 17.984375 -11.421875 C 17.984375 -11.953125 17.988281 -12.484375 18 -13.015625 C 18.019531 -13.546875 18.039062 -14.046875 18.0625 -14.515625 C 18.09375 -14.992188 18.117188 -15.410156 18.140625 -15.765625 L 18.046875 -15.765625 L 11.984375 0 Z M 10.28125 0 "/></g></g></g><g fill="#ed7953" fill-opacity="1"><g transform="translate(222.022131, 249.384659)"><g><path d="M 13.625 0 L 11.4375 -5.65625 L 4.28125 -5.65625 L 2.09375 0 L 0 0 L 6.984375 -17.90625 L 8.84375 -17.90625 L 15.78125 0 Z M 10.8125 -7.5 L 8.71875 -13.125 C 8.675781 -13.269531 8.597656 -13.507812 8.484375 -13.84375 C 8.367188 -14.175781 8.253906 -14.519531 8.140625 -14.875 C 8.035156 -15.238281 7.945312 -15.53125 7.875 -15.75 C 7.789062 -15.414062 7.703125 -15.082031 7.609375 -14.75 C 7.515625 -14.425781 7.421875 -14.125 7.328125 -13.84375 C 7.242188 -13.5625 7.164062 -13.320312 7.09375 -13.125 L 4.984375 -7.5 Z M 10.8125 -7.5 "/></g></g></g><g fill="#ed7953" fill-opacity="1"><g transform="translate(243.235452, 249.384659)"><g><path d="M 7.921875 0 L 5.828125 0 L 5.828125 -16 L 0.21875 -16 L 0.21875 -17.828125 L 13.5 -17.828125 L 13.5 -16 L 7.921875 -16 Z M 7.921875 0 "/></g></g></g><g fill="#ed7953" fill-opacity="1"><g transform="translate(262.412374, 249.384659)"><g><path d="M 12.375 0 L 2.4375 0 L 2.4375 -17.828125 L 12.375 -17.828125 L 12.375 -16 L 4.515625 -16 L 4.515625 -10.234375 L 11.921875 -10.234375 L 11.921875 -8.4375 L 4.515625 -8.4375 L 4.515625 -1.828125 L 12.375 -1.828125 Z M 12.375 0 "/></g></g></g><path fill="#ffffff" d="M 329.734375 208.785156 L 286.570312 165.621094 L 292.914062 159.28125 L 342.34375 208.710938 L 329.734375 208.710938 Z M 45.25 208.785156 L 88.410156 165.621094 L 82.070312 159.28125 L 32.640625 208.710938 L 45.25 208.710938 Z M 233.320312 208.785156 L 187.492188 162.953125 L 141.664062 208.785156 L 129.054688 208.785156 L 187.492188 150.34375 L 246.003906 208.855469 L 233.320312 208.855469 Z M 233.320312 208.785156 " fill-opacity="1" fill-rule="evenodd"/><path fill="#ed7953" d="M 179.347656 192.570312 L 195.5625 192.570312 L 195.5625 208.785156 L 179.347656 208.785156 Z M 179.347656 192.570312 " fill-opacity="1" fill-rule="evenodd"/><path fill="#ed7953" d="M 71.046875 192.570312 L 87.257812 192.570312 L 87.257812 208.785156 L 71.046875 208.785156 Z M 71.046875 192.570312 " fill-opacity="1" fill-rule="evenodd"/><path fill="#ed7953" d="M 287.652344 192.570312 L 303.867188 192.570312 L 303.867188 208.785156 L 287.652344 208.785156 Z M 287.652344 192.570312 " fill-opacity="1" fill-rule="evenodd"/><g clip-path="url(#3c0e3809e7)"><path fill="#ed7953" d="M 121.269531 186.589844 L 99.078125 208.785156 L 117.8125 208.785156 L 187.492188 139.175781 L 257.171875 208.785156 L 275.90625 208.785156 L 253.714844 186.589844 L 293.273438 147.101562 L 355.027344 208.785156 L 367.636719 208.785156 L 293.273438 134.417969 L 225.609375 152.578125 L 236.5625 169.441406 L 220.925781 153.804688 L 187.492188 120.367188 L 154.058594 153.804688 L 138.421875 169.441406 L 149.375 152.578125 L 81.710938 134.417969 L 7.347656 208.785156 L 19.957031 208.785156 L 81.710938 147.101562 Z M 121.269531 186.589844 " fill-opacity="1" fill-rule="evenodd"/></g></svg>